<?xml version="1.0" standalone="no"?>
<!DOCTYPE svg PUBLIC "-//W3C//DTD SVG 20010904//EN"
 "http://www.w3.org/TR/2001/REC-SVG-20010904/DTD/svg10.dtd">
<svg version="1.0" xmlns="http://www.w3.org/2000/svg"
 width="200.000000pt" height="86.000000pt" viewBox="0 0 200.000000 86.000000"
 preserveAspectRatio="xMidYMid meet">

<g transform="translate(0.000000,86.000000) scale(0.100000,-0.100000)"
fill="#000000" stroke="none">
<path d="M970 816 c0 -14 24 -66 30 -66 6 0 30 52 30 66 0 2 -13 4 -30 4 -16
0 -30 -2 -30 -4z"/>
<path d="M823 637 c-62 -95 -115 -180 -119 -190 -6 -16 1 -18 86 -15 l93 3 52
133 53 134 -22 54 c-11 30 -23 54 -26 54 -3 0 -55 -78 -117 -173z"/>
<path d="M1033 755 l-21 -55 53 -133 52 -132 93 -3 c81 -2 92 -1 86 13 -9 25
-230 364 -237 365 -3 0 -15 -25 -26 -55z"/>
<path d="M951 508 l-40 -73 44 -3 c25 -2 65 -2 90 0 l45 3 -42 73 c-23 39 -45
72 -49 72 -4 0 -26 -33 -48 -72z"/>
<path d="M312 288 c6 -18 28 -21 28 -4 0 9 -7 16 -16 16 -9 0 -14 -5 -12 -12z"/>
<path d="M80 195 c0 -52 4 -95 9 -95 6 0 11 15 13 33 3 31 5 32 52 37 39 4 53
11 69 33 l21 27 -21 28 c-17 24 -28 27 -82 30 l-61 3 0 -96z m120 50 c20 -25
-5 -45 -56 -45 -39 0 -44 2 -44 23 0 13 3 27 7 30 12 13 81 7 93 -8z"/>
<path d="M1020 195 c0 -57 4 -95 10 -95 6 0 10 28 10 65 0 36 4 65 9 65 5 0
19 -16 32 -35 30 -44 50 -44 80 0 13 19 27 35 32 35 4 0 7 -29 7 -65 0 -52 3
-65 15 -65 13 0 15 15 13 92 -2 59 -7 93 -15 95 -6 2 -29 -19 -49 -46 -21 -28
-41 -51 -44 -51 -3 0 -21 23 -40 50 -52 73 -60 67 -60 -45z"/>
<path d="M1540 195 c0 -52 4 -95 9 -95 6 0 11 15 13 33 3 31 5 32 52 37 39 4
53 11 69 33 l21 27 -21 28 c-17 24 -28 27 -82 30 l-61 3 0 -96z m120 50 c20
-25 -5 -45 -56 -45 -39 0 -44 2 -44 23 0 13 3 27 7 30 12 13 81 7 93 -8z"/>
<path d="M1801 274 c-33 -24 -51 -71 -40 -108 12 -44 44 -66 94 -66 53 0 75 8
75 27 0 11 -6 12 -22 6 -43 -15 -90 -8 -110 16 -23 30 -23 52 3 85 16 20 29
26 59 26 21 0 42 -4 45 -10 9 -15 25 -12 25 5 0 33 -90 46 -129 19z"/>
<path d="M320 170 c0 -40 4 -70 10 -70 6 0 10 30 10 70 0 40 -4 70 -10 70 -6
0 -10 -30 -10 -70z"/>
<path d="M430 168 c0 -54 3 -68 15 -68 11 0 15 12 15 50 0 44 3 52 26 62 40
19 58 1 62 -61 4 -60 22 -70 22 -11 0 38 26 80 49 80 32 0 41 -14 41 -66 0
-41 4 -54 15 -54 11 0 15 12 15 51 0 68 -13 89 -53 89 -18 0 -38 -5 -45 -12
-9 -9 -17 -9 -34 0 -13 6 -47 10 -75 10 l-53 -2 0 -68z"/>
<path d="M780 138 c0 -80 3 -98 15 -98 10 0 15 10 15 34 l0 33 48 -5 c44 -4
51 -2 71 24 24 31 22 65 -6 96 -13 14 -30 18 -80 16 l-63 -2 0 -98z m121 72
c12 -7 19 -21 19 -41 0 -62 -101 -66 -108 -4 -6 46 42 70 89 45z"/>
<path d="M1300 232 c0 -4 16 -38 36 -75 28 -53 33 -70 25 -86 -14 -25 -14 -44
-1 -36 19 12 111 205 97 205 -7 0 -27 -28 -43 -62 l-31 -63 -32 63 c-27 54
-51 79 -51 54z"/>
</g>
</svg>
